<svg width="297" height="224" viewBox="0 0 297 224" fill="none" xmlns="http://www.w3.org/2000/svg">
<g clip-path="url(#clip0_5_6874)">
<g opacity="0.7">
<g opacity="0.7">
<path opacity="0.7" d="M272.708 102.563C262.802 84.291 246.867 67.3122 226.194 56.625C208.708 47.4892 192.342 46.7997 178.56 58.1763C169.774 65.4161 161.247 72.9143 153.064 80.9297C133.683 100.063 109.564 108.079 82.0007 108.51C65.7208 108.768 49.6132 109.802 33.5917 111.095C25.6671 111.698 18.2594 114.198 11.9714 118.766C3.01314 125.316 -0.518472 135.917 -0.00165104 148.5C0.945855 172.202 9.99023 192.456 29.7156 206.935C38.3293 213.227 47.632 215.209 56.9348 216.157C74.5068 217.881 91.045 214.95 107.497 211.762C116.455 210.038 125.328 208.314 134.286 206.677C149.79 203.832 165.726 205.47 182.006 209.521C200.267 214.175 218.528 217.278 236.616 216.933C247.125 216.76 257.203 215.295 266.42 211.244C282.183 204.349 289.591 190.129 290.538 170.65C291.658 148.5 285.714 127.04 272.708 102.563Z" fill="url(#paint0_linear_5_6874)"/>
</g>
</g>
<path d="M190.448 208.4C190.448 208.4 169.775 170.65 201.215 150.396C232.569 130.142 235.411 114.973 235.411 114.973C235.411 114.973 266.076 196.506 190.448 208.4Z" fill="#79CAB3"/>
<path d="M186.484 206.849C192.859 190.99 226.021 156.947 260.648 164.014C252.637 170.219 246.952 178.924 239.631 188.405C233.946 195.731 231.965 201.591 221.714 206.504C206.899 209.09 186.484 206.849 186.484 206.849Z" fill="#53C0A4"/>
<path d="M105.773 211.158C80.1907 207.28 65.6336 205.642 55.9001 180.131C46.1667 154.62 36.6055 150.31 36.6055 150.31C36.6055 150.31 78.8987 137.985 94.6617 163.497C110.339 189.008 105.773 211.158 105.773 211.158Z" fill="#79CAB3"/>
<path d="M96.2145 203.229C72.4407 181.855 57.539 145.656 82.5187 109.027C89.582 124.799 100.091 139.278 116.543 149.19C136.354 161.17 123.348 206.504 123.348 206.504L96.2145 203.229Z" fill="#53C0A4"/>
<path d="M61.9315 224C82.8632 224 99.8317 222.997 99.8317 221.759C99.8317 220.522 82.8632 219.518 61.9315 219.518C40.9998 219.518 24.0312 220.522 24.0312 221.759C24.0312 222.997 40.9998 224 61.9315 224Z" fill="#E8E8E8"/>
<path d="M230.068 224C251 224 267.968 222.997 267.968 221.759C267.968 220.522 251 219.518 230.068 219.518C209.136 219.518 192.168 220.522 192.168 221.759C192.168 222.997 209.136 224 230.068 224Z" fill="#E8E8E8"/>
<path d="M160.642 217.794C213.162 217.794 255.737 216.753 255.737 215.467C255.737 214.182 213.162 213.14 160.642 213.14C108.122 213.14 65.5469 214.182 65.5469 215.467C65.5469 216.753 108.122 217.794 160.642 217.794Z" fill="#E8E8E8"/>
<path d="M294.155 116.87C296.653 115.146 297.514 113.077 296.739 110.837C295.964 108.51 293.724 107.217 291.14 107.648C290.451 107.82 290.106 107.648 289.762 107.044C288.125 104.373 285.627 103.424 282.526 104.114C281.837 104.286 281.493 104.2 281.062 103.597C278.995 100.494 276.152 99.4599 272.535 100.236C271.932 100.322 271.587 100.322 271.243 99.7184C267.194 93.2544 259.528 92.7373 254.618 98.5118C254.532 98.598 254.446 98.6842 254.36 98.7704C254.101 99.3737 253.671 99.8908 253.498 100.58C253.24 101.442 252.723 101.701 251.948 101.528C249.278 101.615 247.296 102.907 245.66 104.803C245.574 104.89 245.488 104.976 245.401 105.062H245.488C244.712 106.7 244.196 108.423 244.454 110.233C244.971 114.284 248.244 117.042 252.723 117.042C265.385 117.042 278.047 117.042 290.709 117.042C291.829 117.128 292.949 117.128 294.155 116.87Z" fill="#F2F2F2"/>
<path d="M294.155 116.87C293.035 117.214 291.829 117.214 290.709 117.214C278.047 117.214 265.385 117.214 252.723 117.214C248.244 117.214 244.97 114.456 244.454 110.406C244.195 108.509 244.712 106.872 245.487 105.234C243.851 105.838 242.989 107.217 242.559 108.768C240.836 114.284 244.884 119.369 250.139 119.369C263.318 119.283 276.583 119.283 289.762 119.369C291.743 119.197 293.035 118.421 294.155 116.87Z" fill="#DBDBDB"/>
<path d="M251.949 101.528C252.811 101.701 253.241 101.442 253.5 100.58C253.672 99.9771 254.103 99.3738 254.361 98.7705C253.241 99.3738 252.38 100.236 251.949 101.528Z" fill="#E0E0E0"/>
<path d="M245.402 105.062C245.488 104.976 245.575 104.89 245.661 104.803C245.575 104.89 245.488 104.976 245.402 105.062Z" fill="#5389A6"/>
<path d="M21.7033 75.0689C19.2053 73.3451 18.3439 71.2766 19.1192 69.0358C19.8944 66.7087 22.134 65.4159 24.7181 65.8469C25.4072 66.0192 25.7517 65.8469 26.0962 65.2436C27.7328 62.5718 30.2308 61.6237 33.3317 62.3132C34.0208 62.4856 34.3654 62.3994 34.7961 61.7961C36.8634 58.6933 39.7059 57.6591 43.3236 58.4348C43.9266 58.521 44.2711 58.521 44.6157 57.9177C48.6641 51.4536 56.3303 50.9365 61.2401 56.711C61.3262 56.7972 61.4124 56.8834 61.4985 56.9696C61.7569 57.5729 62.1876 58.09 62.3599 58.7795C62.6183 59.6414 63.1351 59.9 63.9103 59.7276C66.5806 59.8138 68.5617 61.1066 70.1983 63.0027C70.2845 63.0889 70.3706 63.1751 70.4567 63.2613H70.3706C71.1458 64.8988 71.6627 66.6225 71.4043 68.4325C70.8874 72.4833 67.6142 75.2412 63.1351 75.2412C50.473 75.2412 37.8109 75.2412 25.1487 75.2412C24.029 75.4136 22.9092 75.3274 21.7033 75.0689Z" fill="#F2F2F2"/>
<path d="M21.7031 75.0688C22.8229 75.4136 24.0288 75.4136 25.1486 75.4136C37.8107 75.4136 50.4728 75.4136 63.135 75.4136C67.6141 75.4136 70.8873 72.6556 71.4041 68.6048C71.6625 66.7087 71.1457 65.0711 70.3705 63.4336C72.0071 64.0369 72.8684 65.4159 73.2991 66.9673C75.0219 72.4832 70.9734 77.5683 65.7191 77.5683C52.5401 77.4821 39.275 77.4821 26.0961 77.5683C24.115 77.3959 22.8229 76.6202 21.7031 75.0688Z" fill="#DBDBDB"/>
<path d="M63.9118 59.7277C63.0505 59.9001 62.6198 59.6415 62.3614 58.7797C62.1891 58.1763 61.7584 57.573 61.5 56.9697C62.6198 57.573 63.4811 58.4349 63.9118 59.7277Z" fill="#E0E0E0"/>
<path d="M70.4576 63.3474C70.3715 63.2612 70.2854 63.1751 70.1992 63.0889C70.2854 63.1751 70.3715 63.2612 70.4576 63.3474Z" fill="#5389A6"/>
<path d="M207.069 94.8057H103.016V52.0569C103.016 23.3567 126.359 0 155.042 0C183.726 0 207.069 23.3567 207.069 52.0569V94.8057ZM124.033 73.7761H186.052V52.0569C186.052 34.9919 172.184 21.0296 155.042 21.0296C137.987 21.0296 124.033 34.9057 124.033 52.0569V73.7761Z" fill="#656565"/>
<path d="M226.279 73.0867H83.8945V215.554H226.279V73.0867Z" fill="#F3C94D"/>
<path d="M181.058 118.249H129.117V170.22H181.058V118.249Z" fill="#4A607A"/>
<path d="M81.9127 185.302C81.9127 185.043 81.7404 184.871 81.482 184.785C78.2949 184.009 75.3663 182.544 72.2653 181.424C74.0742 179.097 75.7969 176.77 77.089 174.012C77.089 173.925 77.089 173.925 77.1751 173.839C78.0365 172.202 78.6395 170.478 79.3286 168.754C80.3622 166.169 81.0513 163.583 81.1374 160.825C81.1374 160.308 80.7068 160.135 80.3622 160.222C80.2761 160.222 80.1899 160.135 80.0177 160.222C75.7969 160.825 71.8347 161.084 67.6139 160.48C63.8239 159.963 60.723 158.584 57.4498 156.688C57.3636 156.429 57.1052 156.257 56.7607 156.343C51.1618 158.584 44.8738 162.204 43.8402 168.668C42.8927 174.27 46.252 181.079 50.9895 184.095C50.9895 184.095 51.0757 184.095 51.0757 184.182C50.8172 185.216 50.5588 186.336 50.3004 187.371C48.4054 196.851 49.9559 206.418 51.5925 215.812C51.5925 216.071 51.7648 216.243 51.937 216.243C52.1954 216.416 52.6261 216.416 52.9707 216.502C53.5736 216.588 54.2627 216.588 54.8657 216.502C55.1241 216.502 55.2964 216.416 55.4686 216.157C57.3637 211.934 58.7418 207.538 60.0339 203.057C61.1537 199.006 62.4457 195.041 63.221 190.904C64.4269 190.387 65.2882 189.353 66.1496 188.405C66.2358 188.319 66.2358 188.319 66.3219 188.232C68.5614 188.836 70.9733 189.525 73.299 189.698C75.7969 189.87 78.4672 189.698 80.9652 189.698C81.3097 189.698 81.5681 189.439 81.5681 189.18C81.9127 188.491 81.9988 187.715 82.0849 186.94C81.9988 186.681 82.1711 185.819 81.9127 185.302Z" fill="#1F2B37"/>
<path d="M80.9651 163.238C81.0513 162.462 81.1374 161.773 81.1374 160.997C81.1374 160.48 80.7067 160.308 80.3622 160.394C80.2761 160.394 80.1899 160.308 80.0176 160.394C75.7969 160.997 71.8346 161.256 67.6139 160.653C63.8239 160.135 60.723 158.756 57.4498 156.86C57.3636 156.602 57.1052 156.429 56.7607 156.516C55.8132 156.86 54.7795 157.377 53.832 157.808C53.832 157.981 53.832 158.153 53.832 158.326C53.832 158.498 54.0043 158.584 54.0904 158.584C57.7082 161.17 62.1012 162.376 66.408 162.893C71.3178 163.669 76.2276 164.014 80.9651 163.238Z" fill="#151E26"/>
<path d="M75.0243 110.664C74.9382 110.664 74.8521 110.751 74.7659 110.837C72.9571 113.164 70.8898 115.749 68.2195 117.128C68.1334 117.215 68.0473 117.215 67.9611 117.301C67.7027 117.473 67.6166 117.732 67.7888 118.076C68.6502 119.197 68.9086 120.145 68.9086 121.265C68.9086 121.352 68.9086 121.524 68.9086 121.61C68.8225 122.127 68.7364 122.731 68.5641 123.334C68.3918 123.851 67.9611 124.971 68.3918 125.489C69.3393 126.695 71.8373 125.23 72.6986 124.627C73.3877 124.196 73.9046 123.592 74.3353 122.989C74.7659 122.472 75.1966 121.955 75.3689 121.352C75.455 121.093 75.455 120.921 75.455 120.662C75.455 120.403 75.455 120.145 75.455 119.973C75.455 119.542 75.5412 119.197 75.5412 118.766C75.7996 116.267 75.6273 113.767 76.058 111.268C76.1441 110.751 75.3689 110.406 75.0243 110.664Z" fill="#F8AD83"/>
<path d="M81.5711 185.388C81.5711 185.474 81.5711 185.474 81.5711 185.388C81.6572 185.474 81.5711 185.474 81.5711 185.388C81.7434 186.681 81.6572 187.801 81.2266 188.922C81.2266 189.008 81.2266 189.008 81.2266 189.094C81.7434 190.387 81.9157 191.938 82.2602 193.231C82.6047 194.438 82.8632 195.645 83.38 196.765C83.8968 197.799 85.7057 200.471 86.9977 198.92C88.0314 197.972 88.1175 195.817 88.0314 194.524C88.0314 193.662 87.8591 192.8 87.6868 192.025C87.5146 191.594 87.4284 191.077 87.17 190.646C86.9977 190.301 86.3086 189.18 86.9977 189.094C87.0839 189.094 87.17 189.18 87.17 189.094C87.2561 189.094 87.2561 189.008 87.2561 189.008C87.6868 188.577 87.6007 187.629 87.6868 187.112C87.6868 186.25 87.773 185.388 87.3423 184.613C87.2561 184.526 87.17 184.526 87.17 184.526C86.6532 184.526 81.3127 184.354 81.5711 185.388Z" fill="#3D2713"/>
<path d="M44.4453 111.957L46.5126 112.129L50.6472 119.714L49.0967 120.49L44.4453 111.957Z" fill="#3D2713"/>
<path d="M43.7539 112.819L48.7498 121.782L49.8696 121.093L44.7875 112.043C44.7875 112.043 43.7539 111.612 43.7539 112.819Z" fill="#3D2713"/>
<path d="M57.7088 141.002C57.7088 140.916 57.7088 140.916 57.6227 140.83C56.0722 139.106 54.5218 137.21 53.402 135.228V135.141C52.6267 133.849 51.9376 132.47 51.4208 131.004C51.2486 130.487 50.9901 130.143 50.7317 129.712C50.301 129.022 50.2149 128.16 50.0426 127.385C49.6981 126.178 49.3535 124.971 48.7506 123.765C48.2338 122.644 47.2001 121.869 46.3388 120.921C45.8219 119.886 45.1328 118.249 45.4774 117.128C45.5635 116.87 45.1328 116.784 45.0467 117.042C44.5299 118.68 45.7358 120.921 46.511 122.3C47.0278 123.248 47.6308 124.109 47.8892 125.23C48.1476 126.523 48.2338 127.815 48.406 129.108V129.194C49.3535 134.71 50.9901 141.692 57.3643 143.071C57.4504 143.071 57.5365 143.071 57.6227 142.984C57.6227 142.984 57.6227 142.898 57.7088 142.898C57.7088 142.381 57.795 141.778 57.9672 141.261C57.795 141.174 57.7088 141.088 57.7088 141.002Z" fill="#DD9773"/>
<path d="M68.9078 121.265C68.8216 121.179 68.7355 121.179 68.7355 121.265C68.6493 121.265 68.6493 121.352 68.5632 121.352C66.4959 122.127 64.3425 122.817 62.5336 124.196C60.4663 125.833 58.4852 127.643 56.7624 129.625C56.6763 129.625 56.5902 129.798 56.6763 129.884C57.5377 131.004 58.399 132.125 59.3465 133.159C59.4327 133.245 59.6911 133.245 59.6911 133.073C60.5525 130.66 62.0168 128.505 63.5673 126.523C65.0316 124.54 66.6682 122.903 68.7355 121.696C68.8216 121.696 68.9078 121.61 68.9078 121.61C68.9078 121.524 68.9078 121.352 68.9078 121.265C68.9939 121.265 68.9939 121.265 68.9078 121.265Z" fill="#E15854"/>
<path d="M64.8592 124.54C64.3424 124.885 63.9117 125.316 63.3949 125.747C61.586 127.643 59.9494 129.798 58.4851 131.952C58.4851 131.952 58.4851 131.952 58.4851 132.039C58.399 132.125 58.3128 132.211 58.399 132.383C58.6574 132.642 59.0019 132.9 59.2603 133.245C59.6049 133.504 59.8633 133.762 60.2078 134.021C60.3801 134.107 60.5524 134.021 60.5524 133.848C61.0692 131.349 62.189 129.022 63.3949 126.781C63.9117 126.005 64.3424 125.316 64.8592 124.54Z" fill="#C74A4A"/>
<path d="M85.3574 142.553C85.4435 139.278 85.8742 135.917 84.8406 132.728C84.7544 132.47 84.3238 132.556 84.4099 132.814C84.4099 133.073 84.5822 133.331 84.5822 133.59C84.8406 134.624 84.7544 135.831 84.496 136.779C84.0654 138.675 83.0317 140.313 81.8258 141.692C81.8258 141.692 81.8258 141.778 81.7397 141.778C80.706 142.726 79.5001 143.502 78.2942 144.191C76.8299 144.967 75.4517 145.829 73.9012 146.346C72.4369 146.863 70.8864 147.294 69.4221 147.638C68.6468 147.811 67.6993 148.069 66.9241 147.811C65.9766 147.466 65.8043 146.69 65.4598 145.915C65.4598 145.829 65.4598 145.829 65.3736 145.829C63.6509 145.57 62.0143 144.881 60.55 143.846C59.5163 143.071 58.8272 142.036 57.7936 141.261C57.7936 141.261 57.7936 141.261 57.7075 141.261L57.6213 141.174L57.5352 141.088C57.5352 141.174 57.4491 141.261 57.4491 141.261C57.4491 141.261 57.4491 141.347 57.3629 141.347C56.4154 146.518 55.8125 151.689 56.2431 156.947C56.2431 157.119 56.4154 157.205 56.5015 157.119C59.8609 159.446 63.8232 160.567 67.7855 161.084C72.1785 161.687 76.6576 161.946 81.0506 161.256C81.1367 161.256 81.2228 161.17 81.2228 161.084L81.309 160.997C82.2565 158.067 83.204 155.051 83.9792 152.034C84.6683 149.19 85.0129 146.26 85.4435 143.329C85.4435 143.243 85.4435 143.243 85.4435 143.157V143.071C85.3574 142.984 85.3574 142.812 85.3574 142.553Z" fill="#F15F57"/>
<path d="M65.4622 145.656C65.2038 144.191 65.0315 142.812 64.8593 141.347C64.7731 140.657 64.7731 139.968 64.8593 139.278C64.9454 138.589 64.9454 137.296 65.1177 136.693C65.1177 136.606 65.1177 136.606 65.1177 136.52C65.1177 136.434 63.7395 136.003 63.6533 135.917C62.3613 135.4 62.0167 135.658 60.8108 134.538C60.3801 134.107 59.9495 133.59 59.6049 133.073C59.2604 132.556 58.8297 131.952 58.4851 131.435C58.4851 131.435 58.4851 131.435 58.4851 131.349C58.4851 131.349 58.4851 131.349 58.4851 131.263C56.2456 128.505 53.5753 126.092 51.1635 123.592C51.3358 122.041 51.4219 120.489 51.2496 119.024C51.1635 118.162 51.0774 117.042 50.3883 116.525C50.3883 116.439 50.3883 116.439 50.3021 116.439C49.7853 116.18 49.3546 116.525 49.1823 117.042C49.0962 117.473 49.0962 117.904 49.0962 118.335C49.0962 118.68 49.4408 119.628 49.1823 120.059L49.0962 120.145C49.0101 120.145 47.8903 119.283 47.718 119.11C47.2873 118.766 46.9428 118.335 46.6844 117.904C46.3398 117.387 46.0814 116.697 45.5646 116.353C45.4785 116.266 45.3923 116.353 45.3062 116.353C45.3062 116.353 45.2201 116.353 45.2201 116.439C44.4448 117.473 45.3062 119.024 45.823 119.972C46.0814 120.489 46.3398 121.093 46.7705 121.524C47.2873 122.127 48.0626 122.472 48.4071 123.247C49.2685 126.35 50.1299 129.539 51.4219 132.469C52.6278 135.227 54.4367 137.641 56.4178 139.968C56.4178 139.968 59.2604 142.726 60.7247 143.846C62.1029 144.88 63.4811 145.656 65.1177 145.915C65.2038 146.001 65.2038 146.001 65.2899 145.915C65.5484 146.001 65.6345 145.742 65.4622 145.656Z" fill="#F8AD83"/>
<path d="M84.8414 132.642C84.8414 132.642 84.8414 132.556 84.8414 132.642C83.98 130.229 82.6879 128.16 81.2236 126.264C79.587 124.282 77.692 122.3 75.6247 120.748C75.5386 120.662 75.5386 120.662 75.4524 120.748C75.4524 121.007 75.4524 121.179 75.3663 121.438C75.194 122.041 74.7634 122.558 74.3327 123.075C73.902 123.679 73.3852 124.282 72.6961 124.713C71.8347 125.316 69.4229 126.781 68.3892 125.575C67.9585 125.058 68.3892 123.937 68.5615 123.42C68.8199 122.644 68.906 121.955 68.9922 121.265C68.906 121.265 68.906 121.265 68.8199 121.265C64.4269 123.937 61.4983 128.16 59.6894 132.901C59.6033 133.073 59.6033 133.159 59.7755 133.332C60.3785 134.021 60.9814 135.055 61.7567 135.4C62.9626 135.917 63.824 136.262 65.116 136.607C64.9437 137.124 64.9437 137.641 64.8576 138.158C64.5992 140.399 64.7715 142.726 65.116 144.967C65.116 145.053 65.116 145.053 65.2021 145.139C65.6328 146.863 65.5467 148.328 67.614 148.156C70.112 147.897 72.8683 147.121 75.194 146.173C79.1563 144.622 83.1186 141.95 84.6691 137.813C84.6691 137.727 84.6691 137.641 84.6691 137.641C84.8414 137.21 84.9275 136.779 84.9275 136.262C85.0136 135.831 85.0136 135.4 85.0136 134.969C85.0998 134.28 85.1859 133.332 84.8414 132.642Z" fill="#F15F57"/>
<path d="M55.2113 216.502C55.2113 216.502 55.1252 216.502 55.2113 216.502C53.9192 216.674 52.7995 216.588 51.6797 216.157C51.5935 216.157 51.5935 216.157 51.5074 216.157C50.2154 216.674 48.751 216.847 47.3728 217.191C46.1669 217.536 44.961 217.795 43.8412 218.312C42.8076 218.829 40.1373 220.639 41.6878 221.932C42.6353 222.966 44.7887 223.052 46.0808 222.966C46.9422 222.966 47.8035 222.794 48.5788 222.621C49.0094 222.449 49.5263 222.363 49.9569 222.104C50.3015 221.932 51.4213 221.242 51.5074 221.932C51.5074 222.018 51.4213 222.104 51.5074 222.104C51.5074 222.19 51.5935 222.19 51.5935 222.19C52.0242 222.621 52.9717 222.535 53.4886 222.621C54.3499 222.621 55.2113 222.707 55.9865 222.276C56.0727 222.19 56.0727 222.104 56.0727 222.104C56.0727 221.501 56.3311 216.157 55.2113 216.502Z" fill="#3D2713"/>
<path d="M75.7136 114.887C75.7136 113.681 75.7998 112.474 75.972 111.354C76.0582 110.75 75.3691 110.406 74.9384 110.664C74.8523 110.664 74.7661 110.75 74.68 110.837C72.8711 113.164 70.8038 115.749 68.1336 117.128C68.0475 117.214 67.9613 117.214 67.8752 117.301C67.6168 117.473 67.5306 117.732 67.7029 118.076C68.2197 118.68 68.4781 119.283 68.6504 119.886C71.6652 119.972 74.2493 117.301 75.7136 114.887Z" fill="#DD9773"/>
<path d="M76.1438 100.408C72.0954 97.9086 67.6162 99.3738 65.2044 103.08C65.1183 103.166 65.0321 103.252 64.946 103.425C64.946 103.511 64.8599 103.597 64.8599 103.683C64.8599 103.683 64.8599 103.683 64.8599 103.769C63.3955 107.734 62.7064 114.715 66.4965 117.559C70.2865 120.403 74.4211 115.922 76.2299 112.819C78.0388 109.285 80.2784 102.994 76.1438 100.408Z" fill="#F8AD83"/>
<path d="M82.8629 103.08C82.6907 102.39 82.3461 102.132 81.9154 101.787C83.2936 99.5461 80.5372 95.5815 77.9531 96.3572C76.3165 94.2025 73.3017 93.6854 70.7176 93.9439C69.684 94.0301 67.0999 94.5472 66.4108 95.84C64.3435 96.0124 62.6208 97.3052 62.1039 99.3737C61.6733 101.184 62.1901 102.994 63.999 103.769C66.7553 104.89 69.684 103.855 72.4404 103.252C73.5601 102.994 74.5077 102.907 75.5413 103.252C77.1779 103.769 77.264 105.148 77.1779 106.613C77.0056 108.854 76.2304 110.75 75.1968 112.733C75.1968 112.819 75.1106 112.819 75.1106 112.905C74.9383 113.422 75.6274 114.026 76.1443 113.595C78.3838 111.612 80.9679 109.285 82.26 106.441C82.7768 105.407 83.1213 104.114 82.8629 103.08Z" fill="#3D2713"/>
<path d="M85.0996 133.417C85.0996 133.331 85.0996 133.331 85.0996 133.417C85.0996 133.331 85.0995 133.245 85.0134 133.245C85.0995 133.848 85.0995 134.452 85.0134 135.055C85.0134 135.486 84.9273 135.917 84.9273 136.348C84.9273 136.779 84.8411 137.296 84.6689 137.727C84.6689 137.813 84.6689 137.813 84.6689 137.899C83.1184 142.036 79.1561 144.708 75.1938 146.259C72.8681 147.207 70.1117 147.983 67.6138 148.242C66.494 148.328 66.0633 147.897 65.7188 147.294C65.9772 148.414 66.3217 149.19 67.786 149.017C70.284 148.759 73.2127 148.242 75.5384 147.294C79.5006 145.742 83.2907 142.812 84.8411 138.675C84.8411 138.589 84.8411 138.503 84.8411 138.503C85.0134 138.072 85.0996 137.641 85.0996 137.124C85.1857 136.693 85.1857 136.262 85.1857 135.831C85.358 134.969 85.4441 134.107 85.0996 133.417Z" fill="#C74A4A"/>
<path d="M65.1172 136.607C65.1172 136.607 71.5775 135.314 77.607 135.314C77.607 135.314 77.0041 134.711 77.0902 133.676C73.4725 134.021 69.2518 135.228 65.1172 136.607Z" fill="#C74A4A"/>
<path d="M59.6909 166.6C59.6909 166.6 53.7475 173.667 51.0772 184.527C51.0772 184.527 50.302 183.923 49.7852 183.578C49.8713 183.578 51.594 176.339 59.6909 166.6Z" fill="#151E26"/>
<path d="M72.3538 181.51C70.2004 184.268 67.1856 187.543 67.1856 187.543L66.3242 188.491L69.0806 189.267L74.4211 182.286L72.3538 181.51Z" fill="#151E26"/>
<path d="M257.637 209.521C256.086 206.332 251.693 204.867 248.334 205.298H248.248C248.162 205.298 248.162 205.298 248.075 205.298C247.989 205.298 247.903 205.298 247.903 205.298C247.042 205.47 246.094 205.901 245.319 206.332C234.121 210.21 222.665 213.141 210.95 214.951H210.864C210.778 214.951 210.778 215.037 210.778 215.123C210.175 216.502 210.175 218.312 210.434 219.863C210.434 220.036 210.52 220.122 210.692 220.122H210.778C216.635 221.156 222.579 221.845 228.522 222.104C233.777 222.363 239.117 222.363 244.372 222.018C248.42 221.759 252.813 221.156 255.914 218.226C257.981 216.071 259.101 212.537 257.637 209.521Z" fill="#849BB2"/>
<path d="M241.698 179.01C240.32 177.459 239.286 175.908 239.373 173.753C239.459 171.771 240.148 169.875 240.492 167.892C241.095 164.359 241.784 156.085 236.099 156.774C235.669 152.723 230.328 152.637 227.227 153.154C223.265 153.758 219.906 156.688 219.216 160.825C218.872 163.324 219.561 165.738 219.733 168.237C219.819 170.995 218.872 173.667 216.805 175.563C214.996 177.287 212.498 178.062 210.517 179.614C208.966 180.82 207.588 182.372 206.813 184.268C205.262 188.232 207.071 192.887 210.861 194.955C211.033 195.041 211.12 194.955 211.206 194.955C213.876 195.817 216.977 195.386 219.733 195.127C222.92 194.869 226.107 194.266 229.208 193.49C234.721 192.111 241.354 190.215 245.23 185.819C245.316 185.733 245.316 185.733 245.316 185.647C245.402 185.561 245.402 185.474 245.402 185.388C245.23 182.717 243.335 180.907 241.698 179.01Z" fill="#8F4D27"/>
<path d="M234.121 178.666C233.949 177.89 233.69 177.287 233.69 176.425C233.69 175.735 233.949 174.615 233.776 174.012C233.604 173.495 233.087 173.753 232.829 174.012C232.312 174.356 231.881 174.615 231.364 174.787C230.245 175.132 229.125 175.046 228.005 174.615C227.661 174.443 226.971 173.926 226.627 174.012C226.11 174.184 226.541 175.305 226.627 175.735C226.713 176.511 226.713 177.201 226.627 177.976C226.455 178.666 226.196 179.183 226.11 179.872C226.024 181.079 226.282 182.286 226.799 183.32C227.402 184.354 228.177 185.302 229.125 185.992C229.986 186.681 230.675 187.198 231.623 186.336C233.604 184.613 234.724 181.424 234.121 178.666C234.035 178.58 234.638 180.82 234.121 178.666Z" fill="#EDB38C"/>
<path d="M244.885 185.216C243.249 183.751 241.354 182.63 239.373 181.596C238.425 181.079 237.564 180.562 236.616 180.131C236.099 179.872 234.463 178.838 234.118 179.614C233.946 179.958 234.032 180.389 233.946 180.734C233.86 181.337 233.688 181.855 233.515 182.372C233.171 183.234 232.74 184.095 232.137 184.785C230.931 186.25 229.122 185.647 228.003 184.354C227.486 183.751 227.055 182.975 226.883 182.113C226.797 181.682 226.71 181.251 226.538 180.734C226.452 180.389 226.538 179.441 226.28 179.269C225.849 178.924 224.902 179.7 224.471 179.958C223.437 180.476 222.49 180.907 221.456 181.424C217.838 183.234 214.479 185.474 212.498 189.18C210.603 192.887 210.258 197.11 210.689 201.16C210.775 202.281 211.034 203.488 211.206 204.608C211.292 204.953 211.292 205.47 211.464 205.815C211.723 206.245 212.153 206.418 212.584 206.676C214.479 207.797 216.374 208.745 218.527 209.262C222.834 210.296 227.4 209.952 231.706 209.779C234.377 209.693 237.047 209.607 239.717 209.348C242.129 209.176 244.713 208.917 246.867 207.711C247.642 207.28 248.762 206.59 249.106 205.728C249.537 204.694 249.537 203.229 249.709 202.195C249.881 200.902 249.967 199.695 249.967 198.402C249.967 197.713 249.881 195.989 249.881 195.644C249.623 191.421 247.814 187.888 244.885 185.216Z" fill="#FCF2D4"/>
<path d="M235.842 157.377C234.292 155.654 232.483 154.619 230.071 154.878C228.004 155.137 225.678 156.257 224.386 157.981C222.922 159.877 222.836 162.376 222.75 164.703V164.79C222.663 169.357 224.128 176.252 230.071 176.166C235.584 176.08 237.048 169.444 237.479 164.962V164.876C237.479 164.703 237.479 164.445 237.565 164.272C237.565 164.014 237.565 163.755 237.565 163.583C237.565 163.411 237.565 163.152 237.565 162.98C237.479 160.825 237.134 158.843 235.842 157.377Z" fill="#F5BE94"/>
<path d="M238.342 164.273C238.17 162.894 237.997 161.428 237.739 160.049C237.481 159.015 236.705 158.153 236.189 157.205C235.155 155.481 233.26 154.706 231.365 154.706C229.039 154.706 226.455 155.309 224.732 156.86C222.493 158.757 222.321 161.342 222.234 164.186C222.234 164.186 222.234 164.186 222.234 164.273C222.234 164.445 222.321 164.531 222.493 164.617C224.302 165.134 225.938 164.1 227.316 163.066C228.695 162.032 229.384 160.911 229.901 159.36C230.59 160.911 231.279 162.376 232.829 163.411C234.38 164.445 236.189 164.79 237.997 164.876C238.084 164.876 238.17 164.876 238.17 164.876H238.256C238.514 164.876 238.6 164.445 238.342 164.273Z" fill="#A05230"/>
<path d="M243.507 195.214C243.507 195.127 243.507 195.041 243.421 194.955C243.421 194.783 243.335 194.697 243.076 194.697C234.463 194.697 225.763 194.783 217.149 194.783C216.891 194.783 216.805 194.955 216.805 195.127C216.805 195.127 216.805 195.127 216.805 195.214C217.235 200.73 218.614 206.159 219.13 211.675C219.13 211.934 219.389 212.02 219.561 212.02C226.71 212.279 233.688 212.537 240.837 212.106C241.095 212.106 241.181 211.762 241.095 211.589C241.698 205.987 243.076 200.643 243.507 195.214Z" fill="#D1D3D4"/>
<path d="M251.346 220.036C250.485 220.208 249.624 220.294 248.762 220.467C248.935 219.088 248.935 217.45 248.504 216.243C249.624 216.416 250.657 216.674 251.691 217.105C251.949 218.14 251.691 219.088 251.346 220.036Z" fill="#E8B28E"/>
<path d="M254.62 222.018C253.673 222.966 252.295 221.415 251.52 220.466C251.95 219.346 252.209 218.139 251.95 216.933C252.984 216.243 254.62 215.381 255.654 216.243C256.429 218.053 255.74 220.811 254.62 222.018Z" fill="#3582B2"/>
<path d="M254.015 221.759C253.067 222.707 251.689 221.07 250.914 220.122C251.345 219.001 251.603 218.053 251.345 216.933C252.378 216.243 254.015 215.209 255.049 216.071C255.738 217.795 255.049 220.639 254.015 221.759Z" fill="#3D8FCD"/>
<path d="M204.06 217.105C205.093 216.674 206.213 216.329 207.247 216.243C206.816 217.536 206.816 219.087 206.988 220.466C206.127 220.294 205.266 220.208 204.404 220.035C204.06 219.087 203.887 218.139 204.06 217.105Z" fill="#E8B28E"/>
<path d="M200.096 216.243C201.13 215.381 202.766 216.243 203.8 216.933C203.541 218.139 203.886 219.346 204.231 220.466C203.455 221.414 202.077 222.966 201.13 222.018C200.01 220.811 199.321 218.053 200.096 216.243Z" fill="#3582B2"/>
<path d="M200.699 215.985C201.733 215.123 203.369 216.243 204.403 216.846C204.145 218.053 204.403 219.001 204.834 220.035C204.059 220.983 202.68 222.621 201.733 221.673C200.699 220.639 200.01 217.795 200.699 215.985Z" fill="#3D8FCD"/>
<path d="M248.505 215.898C248.505 215.812 248.419 215.812 248.419 215.726H248.332C236.618 213.916 225.162 210.986 213.964 207.107C213.102 206.676 212.241 206.245 211.38 206.073C211.294 206.073 211.207 206.073 211.207 206.073C211.121 206.073 211.121 206.073 211.035 206.073H210.949C207.59 205.728 203.111 207.107 201.646 210.296C200.182 213.313 201.302 216.846 203.627 219.087C206.728 222.018 211.035 222.621 215.17 222.88C220.424 223.224 225.678 223.224 231.019 222.966C236.962 222.707 242.906 222.018 248.763 220.983H248.849C248.935 220.983 249.021 220.897 249.108 220.725C249.108 219.087 249.108 217.277 248.505 215.898Z" fill="#849BB2"/>
<path d="M226.367 175.046C226.367 175.046 230.157 177.718 233.775 174.701C233.775 174.701 232.827 177.976 226.539 178.062C226.539 178.062 226.884 176.511 226.367 175.046Z" fill="#C8967A"/>
<path d="M220.078 188.319C220.078 188.319 221.026 192.714 221.026 194.696H224.299C222.404 193.921 221.284 191.335 220.078 188.319Z" fill="#E2D6BA"/>
<path d="M239.893 188.319C239.893 188.319 238.945 192.714 238.945 194.696H235.672C237.567 193.921 238.773 191.335 239.893 188.319Z" fill="#E2D6BA"/>
</g>
<defs>
<linearGradient id="paint0_linear_5_6874" x1="141.305" y1="192.432" x2="143.075" y2="98.2741" gradientUnits="userSpaceOnUse">
<stop offset="2.04359e-07" stop-color="#A0D6EE"/>
<stop offset="1" stop-color="#A0D6EE" stop-opacity="0.1"/>
</linearGradient>
<clipPath id="clip0_5_6874">
<rect width="297" height="224" fill="white"/>
</clipPath>
</defs>
</svg>
